<svg width="48" height="48" viewBox="0 0 48 48" fill="none" xmlns="http://www.w3.org/2000/svg">
<path d="M0 8C0 3.58172 3.58172 0 8 0H40C44.4183 0 48 3.58172 48 8V40C48 44.4183 44.4183 48 40 48H8C3.58172 48 0 44.4183 0 40V8Z" fill="#2B7FFF"/>
<path d="M28 33V31C28 29.9391 27.5786 28.9217 26.8284 28.1716C26.0783 27.4214 25.0609 27 24 27H18C16.9391 27 15.9217 27.4214 15.1716 28.1716C14.4214 28.9217 14 29.9391 14 31V33" stroke="white" stroke-width="2" stroke-linecap="round" stroke-linejoin="round"/>
<path d="M21 23C23.2091 23 25 21.2091 25 19C25 16.7909 23.2091 15 21 15C18.7909 15 17 16.7909 17 19C17 21.2091 18.7909 23 21 23Z" stroke="white" stroke-width="2" stroke-linecap="round" stroke-linejoin="round"/>
<path d="M34 33V31C33.9993 30.1137 33.7044 29.2528 33.1614 28.5523C32.6184 27.8519 31.8581 27.3516 31 27.13" stroke="white" stroke-width="2" stroke-linecap="round" stroke-linejoin="round"/>
<path d="M28 15.13C28.8604 15.3503 29.623 15.8507 30.1676 16.5523C30.7122 17.2539 31.0078 18.1168 31.0078 19.005C31.0078 19.8932 30.7122 20.7561 30.1676 21.4577C29.623 22.1593 28.8604 22.6597 28 22.88" stroke="white" stroke-width="2" stroke-linecap="round" stroke-linejoin="round"/>
</svg>
