<svg width="38" height="38" viewBox="0 0 38 38" fill="none" xmlns="http://www.w3.org/2000/svg">
<mask id="path-1-inside-1_773_3446" fill="white">
<path d="M0 8C0 3.58172 3.58172 0 8 0H30C34.4183 0 38 3.58172 38 8V30C38 34.4183 34.4183 38 30 38H8C3.58172 38 0 34.4183 0 30V8Z"/>
</mask>
<path d="M0 8C0 3.58172 3.58172 0 8 0H30C34.4183 0 38 3.58172 38 8V30C38 34.4183 34.4183 38 30 38H8C3.58172 38 0 34.4183 0 30V8Z" fill="white"/>
<path d="M8 0V1H30V0V-1H8V0ZM38 8H37V30H38H39V8H38ZM30 38V37H8V38V39H30V38ZM0 30H1V8H0H-1V30H0ZM8 38V37C4.13401 37 1 33.866 1 30H0H-1C-1 34.9706 3.02944 39 8 39V38ZM38 30H37C37 33.866 33.866 37 30 37V38V39C34.9706 39 39 34.9706 39 30H38ZM30 0V1C33.866 1 37 4.13401 37 8H38H39C39 3.02944 34.9706 -1 30 -1V0ZM8 0V-1C3.02944 -1 -1 3.02944 -1 8H0H1C1 4.13401 4.13401 1 8 1V0Z" fill="#D6DFE9" mask="url(#path-1-inside-1_773_3446)"/>
<path d="M21.9166 15.2497L23.8333 17.1663C23.9891 17.319 24.1985 17.4046 24.4166 17.4046C24.6348 17.4046 24.8442 17.319 25 17.1663L26.75 15.4163C26.9026 15.2606 26.9882 15.0511 26.9882 14.833C26.9882 14.6149 26.9026 14.4054 26.75 14.2497L24.8333 12.333" stroke="#30B7C4" stroke-width="1.66667" stroke-linecap="round" stroke-linejoin="round"/>
<path d="M26.5 10.667L18.5 18.667" stroke="#30B7C4" stroke-width="1.66667" stroke-linecap="round" stroke-linejoin="round"/>
<path d="M15.25 26.4997C17.7813 26.4997 19.8333 24.4476 19.8333 21.9163C19.8333 19.385 17.7813 17.333 15.25 17.333C12.7187 17.333 10.6666 19.385 10.6666 21.9163C10.6666 24.4476 12.7187 26.4997 15.25 26.4997Z" stroke="#30B7C4" stroke-width="1.66667" stroke-linecap="round" stroke-linejoin="round"/>
</svg>
