<svg width="38" height="38" viewBox="0 0 38 38" fill="none" xmlns="http://www.w3.org/2000/svg">
<mask id="path-1-inside-1_773_3460" fill="white">
<path d="M0 8C0 3.58172 3.58172 0 8 0H30C34.4183 0 38 3.58172 38 8V30C38 34.4183 34.4183 38 30 38H8C3.58172 38 0 34.4183 0 30V8Z"/>
</mask>
<path d="M0 8C0 3.58172 3.58172 0 8 0H30C34.4183 0 38 3.58172 38 8V30C38 34.4183 34.4183 38 30 38H8C3.58172 38 0 34.4183 0 30V8Z" fill="white"/>
<path d="M8 0V1H30V0V-1H8V0ZM38 8H37V30H38H39V8H38ZM30 38V37H8V38V39H30V38ZM0 30H1V8H0H-1V30H0ZM8 38V37C4.13401 37 1 33.866 1 30H0H-1C-1 34.9706 3.02944 39 8 39V38ZM38 30H37C37 33.866 33.866 37 30 37V38V39C34.9706 39 39 34.9706 39 30H38ZM30 0V1C33.866 1 37 4.13401 37 8H38H39C39 3.02944 34.9706 -1 30 -1V0ZM8 0V-1C3.02944 -1 -1 3.02944 -1 8H0H1C1 4.13401 4.13401 1 8 1V0Z" fill="#D6DFE9" mask="url(#path-1-inside-1_773_3460)"/>
<path d="M23.1666 10.667H14.8333C13.9128 10.667 13.1666 11.4132 13.1666 12.3337V25.667C13.1666 26.5875 13.9128 27.3337 14.8333 27.3337H23.1666C24.0871 27.3337 24.8333 26.5875 24.8333 25.667V12.3337C24.8333 11.4132 24.0871 10.667 23.1666 10.667Z" stroke="#30B7C4" stroke-width="1.66667" stroke-linecap="round" stroke-linejoin="round"/>
<path d="M19 24H19.0083" stroke="#30B7C4" stroke-width="1.66667" stroke-linecap="round" stroke-linejoin="round"/>
</svg>
