<svg width="20" height="20" viewBox="0 0 20 20" fill="none" xmlns="http://www.w3.org/2000/svg">
<path d="M12.1133 18.0721C12.145 18.151 12.2 18.2184 12.2711 18.2651C12.3421 18.3118 12.4257 18.3357 12.5107 18.3335C12.5957 18.3313 12.678 18.3032 12.7465 18.2529C12.8151 18.2026 12.8666 18.1325 12.8942 18.0521L18.3108 2.21879C18.3375 2.14495 18.3426 2.06504 18.3255 1.98842C18.3084 1.91179 18.2699 1.84161 18.2143 1.7861C18.1588 1.73059 18.0887 1.69203 18.012 1.67495C17.9354 1.65786 17.8555 1.66295 17.7817 1.68962L1.94833 7.10629C1.86791 7.13387 1.79785 7.18539 1.74756 7.25393C1.69726 7.32247 1.66914 7.40476 1.66696 7.48975C1.66478 7.57474 1.68866 7.65836 1.73538 7.72939C1.7821 7.80042 1.84943 7.85546 1.92833 7.88712L8.53666 10.5371C8.74557 10.6208 8.93537 10.7458 9.09463 10.9048C9.25389 11.0638 9.37931 11.2534 9.46333 11.4621L12.1133 18.0721Z" stroke="white" stroke-width="1.66667" stroke-linecap="round" stroke-linejoin="round"/>
<path d="M18.2117 1.78906L9.095 10.9049" stroke="white" stroke-width="1.66667" stroke-linecap="round" stroke-linejoin="round"/>
</svg>
