<svg width="194" height="35" viewBox="0 0 194 35" fill="none" xmlns="http://www.w3.org/2000/svg">
<path d="M5.37363 23.5C4.46696 23.5 3.72029 23.356 3.13363 23.068C2.54696 22.78 2.10963 22.3427 1.82162 21.756C1.54429 21.1693 1.40563 20.428 1.40563 19.532C1.40563 18.636 1.54429 17.8893 1.82162 17.292C2.10963 16.684 2.54696 16.2307 3.13363 15.932C3.72029 15.6227 4.46696 15.468 5.37363 15.468H8.98962V22.492H6.84563V16.86L7.37363 17.324H5.37363C4.93629 17.324 4.58429 17.3773 4.31763 17.484C4.05096 17.58 3.85363 17.788 3.72563 18.108C3.60829 18.4173 3.54963 18.892 3.54963 19.532C3.54963 20.14 3.60296 20.5987 3.70963 20.908C3.82696 21.2067 4.01896 21.404 4.28563 21.5C4.55229 21.596 4.91496 21.644 5.37363 21.644H10.6696V23.5H5.37363ZM10.6696 23.5V21.644C10.7336 21.644 10.7816 21.6653 10.8136 21.708C10.8563 21.7507 10.8883 21.8147 10.9096 21.9C10.9416 21.9853 10.963 22.0867 10.9736 22.204C10.9843 22.3107 10.9896 22.4333 10.9896 22.572C10.9896 22.7107 10.9843 22.8387 10.9736 22.956C10.963 23.0733 10.9416 23.1747 10.9096 23.26C10.8883 23.3347 10.8563 23.3933 10.8136 23.436C10.7816 23.4787 10.7336 23.5 10.6696 23.5ZM2.98963 13.996V12.172H5.05363V13.996H2.98963ZM5.90163 13.996V12.172H7.96563V13.996H5.90163ZM15.3439 23.5V21.644H17.3439V23.5H15.3439ZM17.3439 23.5V21.644C17.3972 21.644 17.4452 21.6653 17.4879 21.708C17.5305 21.7507 17.5625 21.8147 17.5839 21.9C17.6052 21.9853 17.6212 22.0867 17.6319 22.204C17.6532 22.3107 17.6639 22.4333 17.6639 22.572C17.6639 22.7107 17.6532 22.8387 17.6319 22.956C17.6212 23.0733 17.6052 23.1747 17.5839 23.26C17.5625 23.3347 17.5305 23.3933 17.4879 23.436C17.4559 23.4787 17.4079 23.5 17.3439 23.5ZM10.6719 23.5C10.6079 23.5 10.5599 23.4787 10.5279 23.436C10.4852 23.3933 10.4532 23.3347 10.4319 23.26C10.3999 23.1747 10.3785 23.0733 10.3679 22.956C10.3572 22.8387 10.3519 22.7107 10.3519 22.572C10.3519 22.38 10.3625 22.22 10.3839 22.092C10.4052 21.9533 10.4425 21.8467 10.4959 21.772C10.5385 21.6867 10.5972 21.644 10.6719 21.644V23.5ZM10.6719 23.5V21.644H14.4639L13.2159 22.684V15.468H15.3439V23.5H10.6719ZM11.2479 26.908V25.084H13.3119V26.908H11.2479ZM14.1599 26.908V25.084H16.2239V26.908H14.1599ZM30.7678 23.5V21.644H32.4638V23.5H30.7678ZM17.3438 23.5C17.2797 23.5 17.2317 23.4787 17.1997 23.436C17.1571 23.3933 17.1251 23.3347 17.1037 23.26C17.0717 23.1747 17.0504 23.0733 17.0397 22.956C17.0291 22.8387 17.0237 22.7107 17.0237 22.572C17.0237 22.38 17.0344 22.22 17.0557 22.092C17.0771 21.9533 17.1144 21.8467 17.1677 21.772C17.2104 21.6867 17.2691 21.644 17.3438 21.644V23.5ZM26.7517 23.5C26.3144 23.5 25.8771 23.42 25.4398 23.26C25.0131 23.0893 24.6184 22.8387 24.2558 22.508L25.5677 21.148C25.7811 21.3187 25.9784 21.4467 26.1597 21.532C26.3518 21.6067 26.5491 21.644 26.7517 21.644H29.7438L28.6398 22.652V19.1C28.6398 18.9293 28.6184 18.6733 28.5758 18.332C28.5438 17.98 28.4904 17.5853 28.4158 17.148C28.3518 16.7 28.2718 16.2467 28.1758 15.788L30.2878 15.468C30.3624 15.852 30.4318 16.284 30.4958 16.764C30.5704 17.2333 30.6344 17.6813 30.6878 18.108C30.7411 18.524 30.7678 18.8547 30.7678 19.1V23.5H26.7517ZM17.3438 23.5V21.644H19.6798L19.1998 22.14V17.1H21.3438V23.5H17.3438ZM21.3438 23.5V21.644H22.6398C22.9811 21.644 23.2424 21.596 23.4238 21.5C23.6051 21.3933 23.7278 21.1853 23.7918 20.876C23.8664 20.556 23.9038 20.0813 23.9038 19.452V16.3H26.0478V19.452C26.0478 20.4013 25.9251 21.1747 25.6798 21.772C25.4451 22.3693 25.0771 22.8067 24.5758 23.084C24.0744 23.3613 23.4291 23.5 22.6398 23.5H21.3438ZM32.4638 23.5V21.644C32.5171 21.644 32.5651 21.6653 32.6078 21.708C32.6504 21.7507 32.6824 21.8147 32.7038 21.9C32.7251 21.9853 32.7411 22.0867 32.7518 22.204C32.7731 22.3107 32.7838 22.4333 32.7838 22.572C32.7838 22.7107 32.7731 22.8387 32.7518 22.956C32.7411 23.0733 32.7251 23.1747 32.7038 23.26C32.6824 23.3347 32.6504 23.3933 32.6078 23.436C32.5651 23.4787 32.5171 23.5 32.4638 23.5ZM41.4288 23.5V21.644H43.1088V23.5H41.4288ZM32.4688 23.5C32.4047 23.5 32.3567 23.4787 32.3247 23.436C32.2821 23.3933 32.2501 23.3347 32.2287 23.26C32.1967 23.1747 32.1754 23.0733 32.1647 22.956C32.1541 22.8387 32.1487 22.7107 32.1487 22.572C32.1487 22.38 32.1594 22.22 32.1807 22.092C32.2021 21.9533 32.2394 21.8467 32.2927 21.772C32.3354 21.6867 32.3941 21.644 32.4688 21.644V23.5ZM32.4688 23.5V21.644H39.9408L39.2848 22.204V16.86L39.8288 17.324H37.8128C37.3434 17.324 36.9754 17.3827 36.7088 17.5C36.4421 17.6173 36.2554 17.836 36.1488 18.156C36.0421 18.4653 35.9888 18.908 35.9888 19.484C35.9888 20.1133 36.0421 20.5827 36.1488 20.892C36.2554 21.1907 36.4421 21.3933 36.7088 21.5C36.9754 21.596 37.3434 21.644 37.8128 21.644V23.308C36.9061 23.308 36.1594 23.18 35.5728 22.924C34.9861 22.668 34.5488 22.2627 34.2608 21.708C33.9834 21.1427 33.8448 20.4013 33.8448 19.484C33.8448 18.6093 33.9834 17.8733 34.2608 17.276C34.5488 16.6787 34.9861 16.2307 35.5728 15.932C36.1594 15.6227 36.9061 15.468 37.8128 15.468H41.4288V23.5H32.4688ZM43.1088 23.5V21.644C43.1728 21.644 43.2261 21.6653 43.2688 21.708C43.3114 21.7507 43.3434 21.8147 43.3648 21.9C43.3861 21.9853 43.4021 22.0867 43.4128 22.204C43.4234 22.3107 43.4288 22.4333 43.4288 22.572C43.4288 22.7107 43.4234 22.8387 43.4128 22.956C43.4021 23.0733 43.3861 23.1747 43.3648 23.26C43.3434 23.3347 43.3114 23.3933 43.2688 23.436C43.2261 23.4787 43.1728 23.5 43.1088 23.5ZM36.9648 13.996V12.172H39.1088V13.996H36.9648ZM46.9334 23.5V21.644H48.6134V23.5H46.9334ZM43.1094 23.5C43.0454 23.5 42.9974 23.4787 42.9654 23.436C42.9227 23.3933 42.8907 23.3347 42.8694 23.26C42.8374 23.1747 42.816 23.0733 42.8054 22.956C42.7947 22.8387 42.7894 22.7107 42.7894 22.572C42.7894 22.38 42.8 22.22 42.8214 22.092C42.8427 21.9533 42.88 21.8467 42.9334 21.772C42.976 21.6867 43.0347 21.644 43.1094 21.644V23.5ZM43.1094 23.5V21.644H46.0374L44.7894 22.684V15.468H46.9334V23.5H43.1094ZM48.6134 23.5V21.644C48.6774 21.644 48.7307 21.6653 48.7734 21.708C48.816 21.7507 48.848 21.8147 48.8694 21.9C48.8907 21.9853 48.9067 22.0867 48.9174 22.204C48.928 22.3107 48.9334 22.4333 48.9334 22.572C48.9334 22.7107 48.928 22.8387 48.9174 22.956C48.9067 23.0733 48.8907 23.1747 48.8694 23.26C48.848 23.3347 48.816 23.3933 48.7734 23.436C48.7307 23.4787 48.6774 23.5 48.6134 23.5ZM44.7894 13.996V12.172H46.9334V13.996H44.7894ZM50.4174 23.5V12.188H52.5614V23.5H50.4174ZM48.6094 23.5V21.644H50.4174V23.5H48.6094ZM48.6094 23.5C48.5454 23.5 48.4974 23.4787 48.4654 23.436C48.4227 23.3933 48.3907 23.3347 48.3694 23.26C48.3374 23.1747 48.316 23.0733 48.3054 22.956C48.2947 22.8387 48.2894 22.7107 48.2894 22.572C48.2894 22.38 48.3 22.22 48.3214 22.092C48.3427 21.9533 48.38 21.8467 48.4334 21.772C48.476 21.6867 48.5347 21.644 48.6094 21.644V23.5ZM55.1275 23.5V12.188H57.2555V23.5H55.1275ZM68.0915 23.5C66.9502 23.5 65.9848 23.3507 65.1955 23.052C64.4168 22.7533 63.8248 22.3107 63.4195 21.724C63.0248 21.1373 62.8275 20.4067 62.8275 19.532C62.8275 19.276 62.8435 19.0093 62.8755 18.732C62.9075 18.444 62.9448 18.172 62.9875 17.916C63.0408 17.6493 63.0888 17.4147 63.1315 17.212C63.1742 17.0093 63.2062 16.86 63.2275 16.764L65.3075 17.164C65.2755 17.3347 65.2328 17.5533 65.1795 17.82C65.1262 18.0867 65.0782 18.3693 65.0355 18.668C64.9928 18.956 64.9715 19.2333 64.9715 19.5C64.9715 19.916 65.0355 20.2627 65.1635 20.54C65.3022 20.8173 65.5048 21.0413 65.7715 21.212C66.0382 21.372 66.3742 21.484 66.7795 21.548C67.1848 21.612 67.6595 21.644 68.2035 21.644H72.4755V15.468H74.6195V23.5H68.0915ZM66.2515 15.132V13.308H68.3155V15.132H66.2515ZM69.1635 15.132V13.308H71.2275V15.132H69.1635ZM77.0338 23.5V12.188H79.1618V23.5H77.0338ZM81.2174 27.468C81.0787 27.468 80.9294 27.4627 80.7694 27.452C80.6094 27.4413 80.444 27.4253 80.2734 27.404L80.3534 25.58C80.524 25.5907 80.684 25.6013 80.8334 25.612C80.9934 25.6227 81.1107 25.628 81.1854 25.628C81.6014 25.628 81.932 25.4627 82.1774 25.132C82.4334 24.8013 82.5614 24.3373 82.5614 23.74V15.468H84.7054V23.74C84.7054 24.4653 84.556 25.1107 84.2574 25.676C83.9694 26.2413 83.564 26.6787 83.0414 26.988C82.5187 27.308 81.9107 27.468 81.2174 27.468ZM89.3493 23.5V21.644H91.1733V23.5H89.3493ZM87.2213 23.5V12.188H89.3493V23.5H87.2213ZM91.1733 23.5V21.644C91.2373 21.644 91.2853 21.6653 91.3173 21.708C91.3599 21.7507 91.3919 21.8147 91.4133 21.9C91.4453 21.9853 91.4666 22.0867 91.4773 22.204C91.4879 22.3107 91.4933 22.4333 91.4933 22.572C91.4933 22.7107 91.4879 22.8387 91.4773 22.956C91.4666 23.0733 91.4453 23.1747 91.4133 23.26C91.3919 23.3347 91.3599 23.3933 91.3173 23.436C91.2853 23.4787 91.2373 23.5 91.1733 23.5ZM104.596 23.5V21.644H106.292V23.5H104.596ZM91.1719 23.5C91.1079 23.5 91.0599 23.4787 91.0279 23.436C90.9852 23.3933 90.9532 23.3347 90.9319 23.26C90.8999 23.1747 90.8785 23.0733 90.8679 22.956C90.8572 22.8387 90.8519 22.7107 90.8519 22.572C90.8519 22.38 90.8625 22.22 90.8839 22.092C90.9052 21.9533 90.9425 21.8467 90.9959 21.772C91.0385 21.6867 91.0972 21.644 91.1719 21.644V23.5ZM100.58 23.5C100.143 23.5 99.7052 23.42 99.2679 23.26C98.8412 23.0893 98.4465 22.8387 98.0839 22.508L99.3959 21.148C99.6092 21.3187 99.8065 21.4467 99.9879 21.532C100.18 21.6067 100.377 21.644 100.58 21.644H103.572L102.468 22.652V19.1C102.468 18.9293 102.447 18.6733 102.404 18.332C102.372 17.98 102.319 17.5853 102.244 17.148C102.18 16.7 102.1 16.2467 102.004 15.788L104.116 15.468C104.191 15.852 104.26 16.284 104.324 16.764C104.399 17.2333 104.463 17.6813 104.516 18.108C104.569 18.524 104.596 18.8547 104.596 19.1V23.5H100.58ZM91.1719 23.5V21.644H93.5079L93.0279 22.14V17.1H95.1719V23.5H91.1719ZM95.1719 23.5V21.644H96.4679C96.8092 21.644 97.0705 21.596 97.2519 21.5C97.4332 21.3933 97.5559 21.1853 97.6199 20.876C97.6945 20.556 97.7319 20.0813 97.7319 19.452V16.3H99.8759V19.452C99.8759 20.4013 99.7532 21.1747 99.5079 21.772C99.2732 22.3693 98.9052 22.8067 98.4039 23.084C97.9025 23.3613 97.2572 23.5 96.4679 23.5H95.1719ZM106.292 23.5V21.644C106.345 21.644 106.393 21.6653 106.436 21.708C106.479 21.7507 106.511 21.8147 106.532 21.9C106.553 21.9853 106.569 22.0867 106.58 22.204C106.601 22.3107 106.612 22.4333 106.612 22.572C106.612 22.7107 106.601 22.8387 106.58 22.956C106.569 23.0733 106.553 23.1747 106.532 23.26C106.511 23.3347 106.479 23.3933 106.436 23.436C106.393 23.4787 106.345 23.5 106.292 23.5ZM97.8919 11.548V9.948H99.7479V11.548H97.8919ZM96.3399 13.996V12.172H98.4039V13.996H96.3399ZM99.2519 13.996V12.172H101.316V13.996H99.2519ZM110.969 23.5V21.644H112.969V23.5H110.969ZM112.969 23.5V21.644C113.022 21.644 113.07 21.6653 113.113 21.708C113.156 21.7507 113.188 21.8147 113.209 21.9C113.23 21.9853 113.246 22.0867 113.257 22.204C113.278 22.3107 113.289 22.4333 113.289 22.572C113.289 22.7107 113.278 22.8387 113.257 22.956C113.246 23.0733 113.23 23.1747 113.209 23.26C113.188 23.3347 113.156 23.3933 113.113 23.436C113.081 23.4787 113.033 23.5 112.969 23.5ZM106.297 23.5C106.233 23.5 106.185 23.4787 106.153 23.436C106.11 23.3933 106.078 23.3347 106.057 23.26C106.025 23.1747 106.004 23.0733 105.993 22.956C105.982 22.8387 105.977 22.7107 105.977 22.572C105.977 22.38 105.988 22.22 106.009 22.092C106.03 21.9533 106.068 21.8467 106.121 21.772C106.164 21.6867 106.222 21.644 106.297 21.644V23.5ZM106.297 23.5V21.644H110.089L108.841 22.684V15.468H110.969V23.5H106.297ZM107.433 13.996V12.172H109.497V13.996H107.433ZM110.345 13.996V12.172H112.409V13.996H110.345ZM122.377 23.5C121.939 23.5 121.502 23.42 121.065 23.26C120.638 23.0893 120.243 22.8387 119.881 22.508L121.193 21.148C121.406 21.3187 121.603 21.4467 121.785 21.532C121.977 21.6067 122.174 21.644 122.377 21.644H125.369L124.265 22.652V19.1C124.265 18.9293 124.243 18.6733 124.201 18.332C124.169 17.98 124.115 17.5853 124.041 17.148C123.977 16.7 123.897 16.2467 123.801 15.788L125.913 15.468C125.987 15.852 126.057 16.284 126.121 16.764C126.195 17.2333 126.259 17.6813 126.313 18.108C126.366 18.524 126.393 18.8547 126.393 19.1V23.5H122.377ZM112.969 23.5V21.644H115.305L114.825 22.14V17.1H116.969V23.5H112.969ZM116.969 23.5V21.644H118.265C118.606 21.644 118.867 21.596 119.049 21.5C119.23 21.3933 119.353 21.1853 119.417 20.876C119.491 20.556 119.529 20.0813 119.529 19.452V16.3H121.673V19.452C121.673 20.4013 121.55 21.1747 121.305 21.772C121.07 22.3693 120.702 22.8067 120.201 23.084C119.699 23.3613 119.054 23.5 118.265 23.5H116.969ZM112.969 23.5C112.905 23.5 112.857 23.4787 112.825 23.436C112.782 23.3933 112.75 23.3347 112.729 23.26C112.697 23.1747 112.675 23.0733 112.665 22.956C112.654 22.8387 112.649 22.7107 112.649 22.572C112.649 22.38 112.659 22.22 112.681 22.092C112.702 21.9533 112.739 21.8467 112.793 21.772C112.835 21.6867 112.894 21.644 112.969 21.644V23.5ZM137.404 23.5V21.644H139.084V23.5H137.404ZM128.156 23.5V21.644H136.284L135.26 22.7V12.188H137.404V23.5H128.156ZM130.38 21.644V14.428H132.508V21.644H130.38ZM139.084 23.5V21.644C139.148 21.644 139.196 21.6653 139.228 21.708C139.27 21.7507 139.302 21.8147 139.324 21.9C139.356 21.9853 139.377 22.0867 139.388 22.204C139.398 22.3107 139.404 22.4333 139.404 22.572C139.404 22.7107 139.398 22.8387 139.388 22.956C139.377 23.0733 139.356 23.1747 139.324 23.26C139.302 23.3347 139.27 23.3933 139.228 23.436C139.196 23.4787 139.148 23.5 139.084 23.5ZM140.886 23.5V12.188H143.03V23.5H140.886ZM139.078 23.5V21.644H140.886V23.5H139.078ZM139.078 23.5C139.014 23.5 138.966 23.4787 138.934 23.436C138.891 23.3933 138.859 23.3347 138.838 23.26C138.806 23.1747 138.785 23.0733 138.774 22.956C138.763 22.8387 138.758 22.7107 138.758 22.572C138.758 22.38 138.769 22.22 138.79 22.092C138.811 21.9533 138.849 21.8467 138.902 21.772C138.945 21.6867 139.003 21.644 139.078 21.644V23.5Z" fill="black"/>
<path d="M153.545 23.5C152.403 23.5 151.438 23.3507 150.649 23.052C149.87 22.7533 149.278 22.3107 148.873 21.724C148.478 21.1373 148.281 20.4067 148.281 19.532C148.281 19.276 148.297 19.0093 148.329 18.732C148.361 18.444 148.398 18.172 148.441 17.916C148.494 17.6493 148.542 17.4147 148.585 17.212C148.627 17.0093 148.659 16.86 148.681 16.764L150.761 17.164C150.729 17.3347 150.686 17.5533 150.633 17.82C150.579 18.0867 150.531 18.3693 150.489 18.668C150.446 18.956 150.425 19.2333 150.425 19.5C150.425 19.916 150.489 20.2627 150.617 20.54C150.755 20.8173 150.958 21.0413 151.225 21.212C151.491 21.372 151.827 21.484 152.233 21.548C152.638 21.612 153.113 21.644 153.657 21.644H157.929V15.468H160.073V23.5H153.545ZM151.705 15.132V13.308H153.769V15.132H151.705ZM154.617 15.132V13.308H156.681V15.132H154.617ZM162.487 23.5V12.188H164.615V23.5H162.487ZM166.703 23.5V21.644H172.511L171.055 22.908V20.22C171.055 19.4627 170.975 18.876 170.815 18.46C170.665 18.044 170.409 17.7507 170.047 17.58C169.695 17.4093 169.209 17.324 168.591 17.324H167.295V15.468H168.591C169.572 15.468 170.404 15.628 171.087 15.948C171.78 16.268 172.303 16.78 172.655 17.484C173.017 18.1773 173.199 19.0893 173.199 20.22V23.5H166.703ZM167.535 13.996V12.172H169.679V13.996H167.535Z" fill="#30B7C4"/>
<path d="M184.707 0.586205C185.621 0.999996 186.621 2.13793 186.862 3.05172C187.121 4 186.845 5.44827 186.259 6.2069C186.035 6.51724 185.207 7.20689 184.448 7.74138C183.017 8.75862 182.224 9.65517 181.673 10.9138C181.328 11.7069 181.379 12.069 181.862 12.3276C182.379 12.6034 182.655 12.3621 183.224 11.2069C183.879 9.89655 184.914 8.91379 185.276 9.2931C185.397 9.41379 185.604 9.89655 185.724 10.3621C185.931 11.1724 185.966 11.2069 186.535 11.2069C187.086 11.2069 187.121 11.1724 187.173 10.569C187.207 10.1897 187.069 9.5862 186.845 9.06896L186.483 8.18965L187.173 7.43103C187.552 7.01724 187.914 6.51724 187.983 6.31034C188.121 5.82758 188.259 5.84483 188.81 6.41379C189.431 7.08621 189.793 8.03448 189.793 9.03448C189.793 9.84482 189.81 9.89655 190.379 10.0862C191.69 10.5172 192.535 11.7069 192.552 13.1207V13.8276L191.483 13.2931C190.517 12.8103 190.259 12.7586 188.759 12.7586C187.328 12.7586 187 12.8103 186.104 13.2414C185.535 13.5 184.741 13.9828 184.345 14.3103C183.81 14.7414 183.448 14.9138 183 14.9138C182.121 14.9138 180.655 15.5172 179.828 16.2069L179.121 16.8103L179.017 15.8793C178.931 15.2069 178.966 14.7069 179.155 14.1552C179.397 13.4483 179.397 13.3103 179.155 12.8276C178.983 12.4655 178.914 12 178.966 11.3621C179.069 10.1207 179.914 8.91379 181.621 7.5C183.138 6.25862 183.569 5.48276 183.586 4.01724C183.586 3.20689 183.517 3 183.242 2.84483C182.655 2.53448 182.276 2.89655 182.155 3.86207C182.017 5.0862 181.673 5.62069 180.397 6.63793C179.776 7.12069 179.155 7.68965 179.017 7.89655L178.759 8.25862V7.84482C178.759 7.62069 178.914 7.10345 179.121 6.68965C179.466 5.98276 179.466 5.91379 179.207 5.25862C178.69 3.98276 178.948 2.68965 179.931 1.60344C180.776 0.672409 181.69 0.258617 182.983 0.258617C183.621 0.258617 184.293 0.396549 184.707 0.586205ZM190.638 14.5C192.138 15.1207 192.966 16.4828 192.966 18.2759C192.966 19.6897 192.638 20.4483 191.431 21.8103C191 22.2931 190.655 22.7414 190.655 22.7931C190.655 23 191.224 23.5345 191.448 23.5345C191.569 23.5345 191.948 23.2931 192.293 23C192.638 22.6897 192.966 22.5172 193.035 22.5862C193.104 22.6379 193.155 23.3793 193.138 24.1897C193.121 27.2586 191.362 29.8276 189.121 30.0517C187.569 30.1897 186.586 29.3276 186.724 27.8793C186.81 27.1034 186.966 26.7069 188.276 24.1379C188.621 23.4655 188.948 22.6897 189.017 22.3793C189.173 21.569 188.81 20.4483 188.138 19.7759C187.586 19.2241 187.552 19.1207 187.552 18C187.552 17.0345 187.483 16.7414 187.207 16.4655C186.793 16.0517 186.621 16.0345 186.276 16.3965C186.086 16.5862 186 17 186 17.7759C186 18.8276 185.983 18.8793 185.535 18.9655C184.69 19.1379 183.259 19.931 183.138 20.2931C183.069 20.5345 183.155 20.7586 183.397 21C183.759 21.3793 183.776 21.3793 184.966 20.6897C185.535 20.3621 186.517 20.3621 186.983 20.6897C187.793 21.2586 187.535 23.069 186.483 24.1724C185.914 24.7759 184.759 25.1552 183.776 25.0345C183.104 24.9483 182.879 25 182.655 25.2414C182.293 25.6379 182.31 25.8276 182.724 26.2069C183.017 26.4655 183.345 26.5345 184.276 26.5172L185.448 26.5L185.293 27.0345C185.069 27.8276 185.104 28.8103 185.379 29.4483C185.638 30.1034 186.69 31.069 187.293 31.2241C187.535 31.2759 187.724 31.3966 187.724 31.4655C187.724 31.6724 186.862 32.3276 186.586 32.3276C186.466 32.3276 186.207 32.6034 186 32.931C185.173 34.2759 183.397 35 181.897 34.5862C181.069 34.3448 180.069 33.5517 179.673 32.7931C179.31 32.0862 179.328 30.8276 179.69 30.1207C179.966 29.5862 179.966 29.4828 179.724 28.8621C179.569 28.4828 179.448 28.1034 179.448 28C179.448 27.7586 180.931 28.8448 181.552 29.5517C182.052 30.1207 182.069 30.2069 181.983 31.2414C181.879 32.2069 181.914 32.3448 182.224 32.5C183.017 32.931 183.586 32.1552 183.586 30.7069C183.586 29.6552 182.983 28.7931 181.293 27.3621C179.345 25.7069 178.552 24.3276 178.862 23.069L178.983 22.6552L179.431 23.069C179.914 23.5172 180.517 23.8793 180.81 23.8793C181.017 23.8793 181.517 23.3966 181.517 23.1724C181.517 23.069 181.138 22.6207 180.655 22.1379C179.31 20.7931 179.173 19.5172 180.19 18C180.948 16.8793 182.517 16.1552 183.793 16.3621C184.362 16.4483 184.483 16.4138 184.724 16.0345C185.155 15.3793 186.362 14.6034 187.414 14.3103C188.431 14.0345 189.673 14.1034 190.638 14.5Z" fill="#30B7C4"/>
</svg>
