<svg width="20" height="20" viewBox="0 0 20 20" fill="none" xmlns="http://www.w3.org/2000/svg">
<path d="M5 9.16666H8.33333" stroke="#364153" stroke-width="1.66667" stroke-linecap="round" stroke-linejoin="round"/>
<path d="M6.66663 7.5V10.8333" stroke="#364153" stroke-width="1.66667" stroke-linecap="round" stroke-linejoin="round"/>
<path d="M12.5 10H12.5083" stroke="#364153" stroke-width="1.66667" stroke-linecap="round" stroke-linejoin="round"/>
<path d="M15 8.33334H15.0083" stroke="#364153" stroke-width="1.66667" stroke-linecap="round" stroke-linejoin="round"/>
<path d="M14.4333 4.16666H5.56663C4.74186 4.16685 3.94645 4.4728 3.33415 5.02538C2.72186 5.57795 2.33616 6.3379 2.25163 7.15832C2.24663 7.20166 2.24329 7.24249 2.23746 7.28499C2.16996 7.84666 1.66663 12.0467 1.66663 13.3333C1.66663 13.9964 1.93002 14.6322 2.39886 15.1011C2.8677 15.5699 3.50358 15.8333 4.16663 15.8333C4.99996 15.8333 5.41663 15.4167 5.83329 15L7.01163 13.8217C7.32411 13.5091 7.74797 13.3334 8.18996 13.3333H11.81C12.252 13.3334 12.6758 13.5091 12.9883 13.8217L14.1666 15C14.5833 15.4167 15 15.8333 15.8333 15.8333C16.4963 15.8333 17.1322 15.5699 17.6011 15.1011C18.0699 14.6322 18.3333 13.9964 18.3333 13.3333C18.3333 12.0458 17.83 7.84666 17.7625 7.28499C17.7566 7.24332 17.7533 7.20166 17.7483 7.15916C17.6639 6.33858 17.2783 5.57843 16.666 5.02569C16.0537 4.47294 15.2582 4.16687 14.4333 4.16666Z" stroke="#364153" stroke-width="1.66667" stroke-linecap="round" stroke-linejoin="round"/>
</svg>
