<svg width="40" height="40" viewBox="0 0 40 40" fill="none" xmlns="http://www.w3.org/2000/svg">
<path d="M0 8C0 3.58172 3.58172 0 8 0H32C36.4183 0 40 3.58172 40 8V32C40 36.4183 36.4183 40 32 40H8C3.58172 40 0 36.4183 0 32V8Z" fill="#DCFCE7"/>
<path d="M23.3334 27.5V25.8333C23.3334 24.9493 22.9822 24.1014 22.357 23.4763C21.7319 22.8512 20.8841 22.5 20 22.5H15C14.116 22.5 13.2681 22.8512 12.643 23.4763C12.0179 24.1014 11.6667 24.9493 11.6667 25.8333V27.5" stroke="#00A63E" stroke-width="1.66667" stroke-linecap="round" stroke-linejoin="round"/>
<path d="M17.5 19.1667C19.341 19.1667 20.8334 17.6743 20.8334 15.8333C20.8334 13.9924 19.341 12.5 17.5 12.5C15.6591 12.5 14.1667 13.9924 14.1667 15.8333C14.1667 17.6743 15.6591 19.1667 17.5 19.1667Z" stroke="#00A63E" stroke-width="1.66667" stroke-linecap="round" stroke-linejoin="round"/>
<path d="M28.3333 27.5001V25.8334C28.3328 25.0948 28.0869 24.3774 27.6345 23.7937C27.182 23.2099 26.5484 22.793 25.8333 22.6084" stroke="#00A63E" stroke-width="1.66667" stroke-linecap="round" stroke-linejoin="round"/>
<path d="M23.3333 12.6084C24.0503 12.792 24.6858 13.209 25.1397 13.7937C25.5935 14.3783 25.8398 15.0974 25.8398 15.8376C25.8398 16.5777 25.5935 17.2968 25.1397 17.8815C24.6858 18.4661 24.0503 18.8831 23.3333 19.0667" stroke="#00A63E" stroke-width="1.66667" stroke-linecap="round" stroke-linejoin="round"/>
</svg>
