<svg width="20" height="20" viewBox="0 0 20 20" fill="none" xmlns="http://www.w3.org/2000/svg">
<path d="M5 9.16699H8.33333" stroke="#364153" stroke-width="1.66667" stroke-linecap="round" stroke-linejoin="round"/>
<path d="M6.66663 7.5V10.8333" stroke="#364153" stroke-width="1.66667" stroke-linecap="round" stroke-linejoin="round"/>
<path d="M12.5 10H12.5083" stroke="#364153" stroke-width="1.66667" stroke-linecap="round" stroke-linejoin="round"/>
<path d="M15 8.33301H15.0083" stroke="#364153" stroke-width="1.66667" stroke-linecap="round" stroke-linejoin="round"/>
<path d="M14.4333 4.16699H5.56663C4.74186 4.16718 3.94645 4.47314 3.33415 5.02571C2.72186 5.57828 2.33616 6.33824 2.25163 7.15866C2.24663 7.20199 2.24329 7.24283 2.23746 7.28533C2.16996 7.84699 1.66663 12.047 1.66663 13.3337C1.66663 13.9967 1.93002 14.6326 2.39886 15.1014C2.8677 15.5703 3.50358 15.8337 4.16663 15.8337C4.99996 15.8337 5.41663 15.417 5.83329 15.0003L7.01163 13.822C7.32411 13.5094 7.74797 13.3338 8.18996 13.3337H11.81C12.252 13.3338 12.6758 13.5094 12.9883 13.822L14.1666 15.0003C14.5833 15.417 15 15.8337 15.8333 15.8337C16.4963 15.8337 17.1322 15.5703 17.6011 15.1014C18.0699 14.6326 18.3333 13.9967 18.3333 13.3337C18.3333 12.0462 17.83 7.84699 17.7625 7.28533C17.7566 7.24366 17.7533 7.20199 17.7483 7.15949C17.6639 6.33892 17.2783 5.57877 16.666 5.02602C16.0537 4.47328 15.2582 4.16721 14.4333 4.16699Z" stroke="#364153" stroke-width="1.66667" stroke-linecap="round" stroke-linejoin="round"/>
</svg>
