<svg width="16" height="16" viewBox="0 0 16 16" fill="none" xmlns="http://www.w3.org/2000/svg">
<path d="M12 12C13.1046 12 14 11.1046 14 10C14 8.89543 13.1046 8 12 8C10.8954 8 10 8.89543 10 10C10 11.1046 10.8954 12 12 12Z" stroke="#30B7C4" stroke-width="1.33333" stroke-linecap="round" stroke-linejoin="round"/>
<path d="M5.99998 7.33333C7.47274 7.33333 8.66665 6.13943 8.66665 4.66667C8.66665 3.19391 7.47274 2 5.99998 2C4.52722 2 3.33331 3.19391 3.33331 4.66667C3.33331 6.13943 4.52722 7.33333 5.99998 7.33333Z" stroke="#30B7C4" stroke-width="1.33333" stroke-linecap="round" stroke-linejoin="round"/>
<path d="M6.66665 10H3.99998C3.29274 10 2.61446 10.281 2.11436 10.781C1.61426 11.2811 1.33331 11.9594 1.33331 12.6667V14" stroke="#30B7C4" stroke-width="1.33333" stroke-linecap="round" stroke-linejoin="round"/>
<path d="M14.4666 10.9334L13.8666 10.7334" stroke="#30B7C4" stroke-width="1.33333" stroke-linecap="round" stroke-linejoin="round"/>
<path d="M10.1333 9.26665L9.53333 9.06665" stroke="#30B7C4" stroke-width="1.33333" stroke-linecap="round" stroke-linejoin="round"/>
<path d="M11.0667 12.4667L11.2666 11.8667" stroke="#30B7C4" stroke-width="1.33333" stroke-linecap="round" stroke-linejoin="round"/>
<path d="M12.7333 8.13345L12.9333 7.53345" stroke="#30B7C4" stroke-width="1.33333" stroke-linecap="round" stroke-linejoin="round"/>
<path d="M13.0667 12.4667L12.8 11.8" stroke="#30B7C4" stroke-width="1.33333" stroke-linecap="round" stroke-linejoin="round"/>
<path d="M11.2 8.20011L10.9333 7.53345" stroke="#30B7C4" stroke-width="1.33333" stroke-linecap="round" stroke-linejoin="round"/>
<path d="M9.53333 11.0667L10.2 10.8" stroke="#30B7C4" stroke-width="1.33333" stroke-linecap="round" stroke-linejoin="round"/>
<path d="M13.8 9.20002L14.4667 8.93335" stroke="#30B7C4" stroke-width="1.33333" stroke-linecap="round" stroke-linejoin="round"/>
</svg>
